<?xml version="1.0" encoding="UTF-8" standalone="no"?>
<!DOCTYPE svg PUBLIC "-//W3C//DTD SVG 1.1//EN" "http://www.w3.org/Graphics/SVG/1.1/DTD/svg11.dtd">
<svg xmlns="http://www.w3.org/2000/svg" version="1.1" viewBox="0.00 0.00 1080.00 1080.00">
<g stroke-width="2.00" fill="none" stroke-linecap="butt">
<path stroke="#80a5ab" vector-effect="non-scaling-stroke" d="
  M 292.00 418.76
  L 237.42 418.77
  Q 236.92 418.77 236.92 419.26
  L 236.91 473.21
  A 0.55 0.54 0.0 0 0 237.46 473.75
  L 291.74 473.75
  A 0.26 0.26 0.0 0 0 292.00 473.49
  L 292.00 418.76"
/>
<path stroke="#80a5ab" vector-effect="non-scaling-stroke" d="
  M 292.00 418.76
  L 456.96 418.75
  A 0.47 0.47 0.0 0 1 457.43 419.22
  L 457.43 528.22
  Q 457.43 528.75 457.97 528.75
  L 512.00 528.75
  Q 512.50 528.75 512.50 528.25
  L 512.50 419.25
  Q 512.50 418.75 512.00 418.75
  L 457.97 418.75
  Q 457.45 418.75 457.45 418.22
  L 457.45 363.98
  Q 457.46 363.50 456.98 363.50
  L 292.51 363.50
  Q 292.02 363.50 292.02 363.99
  L 292.00 418.76"
/>
<path stroke="#80a5ab" vector-effect="non-scaling-stroke" d="
  M 622.57 418.76
  L 568.01 418.77
  Q 567.51 418.77 567.51 419.27
  L 567.51 473.00
  A 0.74 0.74 0.0 0 0 568.25 473.74
  L 621.99 473.75
  Q 622.53 473.75 622.53 473.21
  L 622.57 418.76"
/>
<path stroke="#80a5ab" vector-effect="non-scaling-stroke" d="
  M 622.57 418.76
  L 787.70 418.76
  A 0.32 0.32 0.0 0 1 788.02 419.08
  L 788.02 528.76"
/>
<path stroke="#80a5ab" vector-effect="non-scaling-stroke" d="
  M 788.02 528.76
  L 678.23 528.76
  Q 677.72 528.76 677.72 529.27
  L 677.72 583.73
  Q 677.72 584.24 678.22 584.24
  L 788.02 584.25"
/>
<path stroke="#80a5ab" vector-effect="non-scaling-stroke" d="
  M 788.02 584.25
  L 788.02 693.73
  Q 788.02 694.25 787.50 694.25
  L 623.05 694.25
  A 0.45 0.45 0.0 0 0 622.60 694.70
  L 622.60 748.68
  Q 622.60 749.25 623.18 749.25
  L 787.51 749.25
  Q 788.02 749.25 788.02 748.74
  L 788.03 694.74
  Q 788.03 694.25 788.51 694.25
  L 842.75 694.25
  A 0.40 0.39 -0.0 0 0 843.15 693.86
  L 843.14 584.62
  Q 843.14 584.25 842.77 584.25
  L 788.02 584.25"
/>
<path stroke="#80a5ab" vector-effect="non-scaling-stroke" d="
  M 788.02 584.25
  L 788.02 528.76"
/>
<path stroke="#80a5ab" vector-effect="non-scaling-stroke" d="
  M 788.02 528.76
  L 842.81 528.75
  A 0.33 0.33 0.0 0 0 843.14 528.42
  L 843.14 419.10
  A 0.35 0.35 0.0 0 0 842.79 418.75
  L 788.76 418.75
  Q 788.03 418.75 788.03 418.01
  L 788.02 364.01
  Q 788.02 363.50 787.51 363.50
  L 622.98 363.50
  A 0.39 0.39 0.0 0 0 622.59 363.89
  L 622.57 418.76"
/>
<path stroke="#80a5ab" vector-effect="non-scaling-stroke" d="
  M 457.45 529.19
  A 0.44 0.44 0.0 0 0 457.01 528.75
  L 347.47 528.75
  A 0.44 0.44 0.0 0 0 347.03 529.19
  L 347.03 583.81
  A 0.44 0.44 0.0 0 0 347.47 584.25
  L 457.01 584.25
  A 0.44 0.44 0.0 0 0 457.45 583.81
  L 457.45 529.19"
/>
<path stroke="#80a5ab" vector-effect="non-scaling-stroke" d="
  M 457.45 694.63
  A 0.38 0.38 0.0 0 1 457.83 694.25
  L 512.12 694.25
  A 0.38 0.38 0.0 0 0 512.50 693.87
  L 512.50 584.63
  A 0.38 0.38 0.0 0 0 512.12 584.25
  L 457.81 584.25
  A 0.38 0.38 0.0 0 0 457.43 584.63
  L 457.44 693.87
  A 0.38 0.38 0.0 0 1 457.06 694.25
  L 292.38 694.25
  A 0.38 0.38 0.0 0 1 292.00 693.87
  L 292.00 639.63
  A 0.38 0.38 0.0 0 0 291.62 639.25
  L 237.30 639.25
  A 0.38 0.38 0.0 0 0 236.92 639.63
  L 236.92 693.87
  A 0.38 0.38 0.0 0 0 237.30 694.25
  L 291.61 694.25
  A 0.38 0.38 0.0 0 1 291.99 694.63
  L 291.98 748.87
  A 0.38 0.38 0.0 0 0 292.36 749.25
  L 457.07 749.25
  A 0.38 0.38 0.0 0 0 457.45 748.87
  L 457.45 694.63"
/>
<path stroke="#80a5ab" vector-effect="non-scaling-stroke" d="
  M 622.59 639.62
  A 0.37 0.37 0.0 0 0 622.22 639.25
  L 567.88 639.25
  A 0.37 0.37 0.0 0 0 567.51 639.62
  L 567.51 693.88
  A 0.37 0.37 0.0 0 0 567.88 694.25
  L 622.22 694.25
  A 0.37 0.37 0.0 0 0 622.59 693.88
  L 622.59 639.62"
/>
</g>
<path fill="#004b56" d="
  M 0.00 0.00
  L 1080.00 0.00
  L 1080.00 1080.00
  L 0.00 1080.00
  L 0.00 0.00
  Z
  M 292.00 418.76
  L 237.42 418.77
  Q 236.92 418.77 236.92 419.26
  L 236.91 473.21
  A 0.55 0.54 0.0 0 0 237.46 473.75
  L 291.74 473.75
  A 0.26 0.26 0.0 0 0 292.00 473.49
  L 292.00 418.76
  L 456.96 418.75
  A 0.47 0.47 0.0 0 1 457.43 419.22
  L 457.43 528.22
  Q 457.43 528.75 457.97 528.75
  L 512.00 528.75
  Q 512.50 528.75 512.50 528.25
  L 512.50 419.25
  Q 512.50 418.75 512.00 418.75
  L 457.97 418.75
  Q 457.45 418.75 457.45 418.22
  L 457.45 363.98
  Q 457.46 363.50 456.98 363.50
  L 292.51 363.50
  Q 292.02 363.50 292.02 363.99
  L 292.00 418.76
  Z
  M 622.57 418.76
  L 568.01 418.77
  Q 567.51 418.77 567.51 419.27
  L 567.51 473.00
  A 0.74 0.74 0.0 0 0 568.25 473.74
  L 621.99 473.75
  Q 622.53 473.75 622.53 473.21
  L 622.57 418.76
  L 787.70 418.76
  A 0.32 0.32 0.0 0 1 788.02 419.08
  L 788.02 528.76
  L 678.23 528.76
  Q 677.72 528.76 677.72 529.27
  L 677.72 583.73
  Q 677.72 584.24 678.22 584.24
  L 788.02 584.25
  L 788.02 693.73
  Q 788.02 694.25 787.50 694.25
  L 623.05 694.25
  A 0.45 0.45 0.0 0 0 622.60 694.70
  L 622.60 748.68
  Q 622.60 749.25 623.18 749.25
  L 787.51 749.25
  Q 788.02 749.25 788.02 748.74
  L 788.03 694.74
  Q 788.03 694.25 788.51 694.25
  L 842.75 694.25
  A 0.40 0.39 -0.0 0 0 843.15 693.86
  L 843.14 584.62
  Q 843.14 584.25 842.77 584.25
  L 788.02 584.25
  L 788.02 528.76
  L 842.81 528.75
  A 0.33 0.33 0.0 0 0 843.14 528.42
  L 843.14 419.10
  A 0.35 0.35 0.0 0 0 842.79 418.75
  L 788.76 418.75
  Q 788.03 418.75 788.03 418.01
  L 788.02 364.01
  Q 788.02 363.50 787.51 363.50
  L 622.98 363.50
  A 0.39 0.39 0.0 0 0 622.59 363.89
  L 622.57 418.76
  Z
  M 457.45 529.19
  A 0.44 0.44 0.0 0 0 457.01 528.75
  L 347.47 528.75
  A 0.44 0.44 0.0 0 0 347.03 529.19
  L 347.03 583.81
  A 0.44 0.44 0.0 0 0 347.47 584.25
  L 457.01 584.25
  A 0.44 0.44 0.0 0 0 457.45 583.81
  L 457.45 529.19
  Z
  M 457.45 694.63
  A 0.38 0.38 0.0 0 1 457.83 694.25
  L 512.12 694.25
  A 0.38 0.38 0.0 0 0 512.50 693.87
  L 512.50 584.63
  A 0.38 0.38 0.0 0 0 512.12 584.25
  L 457.81 584.25
  A 0.38 0.38 0.0 0 0 457.43 584.63
  L 457.44 693.87
  A 0.38 0.38 0.0 0 1 457.06 694.25
  L 292.38 694.25
  A 0.38 0.38 0.0 0 1 292.00 693.87
  L 292.00 639.63
  A 0.38 0.38 0.0 0 0 291.62 639.25
  L 237.30 639.25
  A 0.38 0.38 0.0 0 0 236.92 639.63
  L 236.92 693.87
  A 0.38 0.38 0.0 0 0 237.30 694.25
  L 291.61 694.25
  A 0.38 0.38 0.0 0 1 291.99 694.63
  L 291.98 748.87
  A 0.38 0.38 0.0 0 0 292.36 749.25
  L 457.07 749.25
  A 0.38 0.38 0.0 0 0 457.45 748.87
  L 457.45 694.63
  Z
  M 622.59 639.62
  A 0.37 0.37 0.0 0 0 622.22 639.25
  L 567.88 639.25
  A 0.37 0.37 0.0 0 0 567.51 639.62
  L 567.51 693.88
  A 0.37 0.37 0.0 0 0 567.88 694.25
  L 622.22 694.25
  A 0.37 0.37 0.0 0 0 622.59 693.88
  L 622.59 639.62
  Z"
/>
<g fill="#ffffff">
<path d="
  M 292.00 418.76
  L 292.02 363.99
  Q 292.02 363.50 292.51 363.50
  L 456.98 363.50
  Q 457.46 363.50 457.45 363.98
  L 457.45 418.22
  Q 457.45 418.75 457.97 418.75
  L 512.00 418.75
  Q 512.50 418.75 512.50 419.25
  L 512.50 528.25
  Q 512.50 528.75 512.00 528.75
  L 457.97 528.75
  Q 457.43 528.75 457.43 528.22
  L 457.43 419.22
  A 0.47 0.47 0.0 0 0 456.96 418.75
  L 292.00 418.76
  Z"
/>
<path d="
  M 788.02 528.76
  L 788.02 419.08
  A 0.32 0.32 0.0 0 0 787.70 418.76
  L 622.57 418.76
  L 622.59 363.89
  A 0.39 0.39 0.0 0 1 622.98 363.50
  L 787.51 363.50
  Q 788.02 363.50 788.02 364.01
  L 788.03 418.01
  Q 788.03 418.75 788.76 418.75
  L 842.79 418.75
  A 0.35 0.35 0.0 0 1 843.14 419.10
  L 843.14 528.42
  A 0.33 0.33 0.0 0 1 842.81 528.75
  L 788.02 528.76
  Z"
/>
<path d="
  M 292.00 418.76
  L 292.00 473.49
  A 0.26 0.26 0.0 0 1 291.74 473.75
  L 237.46 473.75
  A 0.55 0.54 0.0 0 1 236.91 473.21
  L 236.92 419.26
  Q 236.92 418.77 237.42 418.77
  L 292.00 418.76
  Z"
/>
<path d="
  M 622.57 418.76
  L 622.53 473.21
  Q 622.53 473.75 621.99 473.75
  L 568.25 473.74
  A 0.74 0.74 0.0 0 1 567.51 473.00
  L 567.51 419.27
  Q 567.51 418.77 568.01 418.77
  L 622.57 418.76
  Z"
/>
<rect x="347.03" y="528.75" width="110.42" height="55.50" rx="0.44"/>
<path d="
  M 788.02 528.76
  L 788.02 584.25
  L 678.22 584.24
  Q 677.72 584.24 677.72 583.73
  L 677.72 529.27
  Q 677.72 528.76 678.23 528.76
  L 788.02 528.76
  Z"
/>
<path d="
  M 457.45 694.63
  L 457.45 748.87
  A 0.38 0.38 0.0 0 1 457.07 749.25
  L 292.36 749.25
  A 0.38 0.38 0.0 0 1 291.98 748.87
  L 291.99 694.63
  A 0.38 0.38 0.0 0 0 291.61 694.25
  L 237.30 694.25
  A 0.38 0.38 0.0 0 1 236.92 693.87
  L 236.92 639.63
  A 0.38 0.38 0.0 0 1 237.30 639.25
  L 291.62 639.25
  A 0.38 0.38 0.0 0 1 292.00 639.63
  L 292.00 693.87
  A 0.38 0.38 0.0 0 0 292.38 694.25
  L 457.06 694.25
  A 0.38 0.38 0.0 0 0 457.44 693.87
  L 457.43 584.63
  A 0.38 0.38 0.0 0 1 457.81 584.25
  L 512.12 584.25
  A 0.38 0.38 0.0 0 1 512.50 584.63
  L 512.50 693.87
  A 0.38 0.38 0.0 0 1 512.12 694.25
  L 457.83 694.25
  A 0.38 0.38 0.0 0 0 457.45 694.63
  Z"
/>
<path d="
  M 788.02 584.25
  L 842.77 584.25
  Q 843.14 584.25 843.14 584.62
  L 843.15 693.86
  A 0.40 0.39 -0.0 0 1 842.75 694.25
  L 788.51 694.25
  Q 788.03 694.25 788.03 694.74
  L 788.02 748.74
  Q 788.02 749.25 787.51 749.25
  L 623.18 749.25
  Q 622.60 749.25 622.60 748.68
  L 622.60 694.70
  A 0.45 0.45 0.0 0 1 623.05 694.25
  L 787.50 694.25
  Q 788.02 694.25 788.02 693.73
  L 788.02 584.25
  Z"
/>
<rect x="567.51" y="639.25" width="55.08" height="55.00" rx="0.37"/>
</g>
</svg>
